<svg width="209" height="105" viewBox="0 0 209 105" fill="none" xmlns="http://www.w3.org/2000/svg">
<rect y="19.1549" width="67" height="53.2565" rx="6" fill="#78BFA5"/>
<rect x="158" y="28.1984" width="20" height="20.0968" rx="6" fill="#78BFA5"/>
<rect x="152" y="0.0629272" width="20" height="20.0968" rx="6" fill="#78BFA5"/>
<rect x="186" y="43.2711" width="20" height="20.0968" rx="6" fill="#78BFA5"/>
<rect x="183" y="12.121" width="20" height="20.0968" rx="6" fill="#78BFA5"/>
<rect x="69" y="2.07257" width="81" height="53.2565" rx="6" fill="#78BFA5"/>
<rect x="55" y="72.4114" width="154" height="32.1549" rx="6" fill="#78BFA5"/>
<path d="M99.24 20.28C99.04 15.2 95.28 11.56 88.56 11.56C82.08 11.56 78.84 14.96 78.84 19.72C78.84 23.08 80.44 25 83.28 26.28C85.16 27.12 87.28 27.6 90.56 28.32C93.88 29.04 94.68 30.12 94.68 31.68C94.68 34.04 92.8 35.44 89.52 35.44C85.96 35.44 83.68 33.76 83.6 31.04H78.24C78.36 37 82.92 39.92 89.48 39.92C95.68 39.92 100.08 37.32 100.08 31.48C100.08 27.72 98.24 26.08 95.92 25.04C93.96 24.16 91.04 23.44 88.04 22.72C85.08 22 83.92 21.04 83.92 19.36C83.92 17.36 85.56 16.24 88.68 16.24C92.04 16.24 93.68 17.56 93.96 20.28H99.24ZM113.899 31.52C113.859 33.84 111.859 35.8 109.179 35.8C107.539 35.8 106.659 35.08 106.659 33.6C106.659 31.92 107.619 31.08 110.579 30.52C112.499 30.16 113.419 29.88 113.939 29.36L113.899 31.52ZM119.139 39V26.56C119.139 21.6 116.979 18.8 110.739 18.8C104.419 18.8 102.179 21.64 102.099 25.72H106.939C107.179 23.96 108.139 22.8 110.499 22.8C112.539 22.8 113.819 23.56 113.819 24.84C113.819 26.2 113.099 26.72 110.499 27.08C105.259 27.8 101.459 28.44 101.459 34.12C101.459 37.32 103.539 39.52 108.019 39.52C110.659 39.52 112.739 38.6 113.979 37.24C114.019 37.84 114.139 38.52 114.299 39H119.139ZM127.032 39V12.12H121.832V39H127.032ZM141.535 31.52C141.495 33.84 139.495 35.8 136.815 35.8C135.175 35.8 134.295 35.08 134.295 33.6C134.295 31.92 135.255 31.08 138.215 30.52C140.135 30.16 141.055 29.88 141.575 29.36L141.535 31.52ZM146.775 39V26.56C146.775 21.6 144.615 18.8 138.375 18.8C132.055 18.8 129.815 21.64 129.735 25.72H134.575C134.815 23.96 135.775 22.8 138.135 22.8C140.175 22.8 141.455 23.56 141.455 24.84C141.455 26.2 140.735 26.72 138.135 27.08C132.895 27.8 129.095 28.44 129.095 34.12C129.095 37.32 131.175 39.52 135.655 39.52C138.295 39.52 140.375 38.6 141.615 37.24C141.655 37.84 141.775 38.52 141.935 39H146.775Z" fill="#242973"/>
<path d="M25.36 59.4591C22.76 59.4591 20.92 57.0191 20.92 53.4991C20.92 49.4591 22.36 47.4191 25.4 47.4191C28.28 47.4191 29.76 49.5391 29.76 53.8191C29.76 57.1391 27.84 59.4591 25.36 59.4591ZM34.68 63.1791V36.2991H29.56V46.0591C28.08 43.9791 26.16 42.9791 23.72 42.9791C18.64 42.9791 15.64 47.1791 15.64 53.1391C15.64 59.7791 19.2 63.6991 24.16 63.6991C26.56 63.6991 28.4 62.7791 29.64 60.7791L29.68 63.1791H34.68ZM42.2975 51.4191C42.4975 48.6991 44.2175 47.0991 46.2975 47.0991C48.3375 47.0991 50.2575 48.4991 50.3375 51.4191H42.2975ZM55.6975 54.6991C55.6975 46.8991 52.4975 42.9791 46.4575 42.9791C40.4175 42.9791 36.9375 46.8991 36.9375 52.9791C36.9375 60.0991 40.2175 63.6991 46.7775 63.6991C50.9775 63.6991 54.2175 61.4191 55.4175 57.3791H50.0575C49.6975 58.7391 48.2175 59.5791 46.5375 59.5791C43.9775 59.5791 42.2975 57.6591 42.1375 54.6991H55.6975Z" fill="#F2DFBB"/>
<path d="M78.08 87.2952V82.5752H63.32V75.7352H76.32V71.0552H63.32V65.3752H77.44V60.7352H57.92V87.2952H78.08ZM96.5691 73.5752C96.2891 69.3352 93.7291 67.0952 88.0491 67.0952C82.0491 67.0952 79.7691 69.6152 79.7691 72.9352C79.7691 74.6952 80.4091 76.2152 82.2491 77.3752C83.6491 78.2552 85.4891 78.8152 88.8091 79.6152C90.4891 80.0152 91.9691 80.4552 91.9691 81.8552C91.9691 83.3352 90.3291 83.8952 88.4891 83.8952C85.9691 83.8952 84.4091 82.8152 84.4091 80.9752H79.0491C79.1291 84.9752 82.4891 87.8152 88.5291 87.8152C94.1291 87.8152 97.1291 85.3752 97.1291 81.2952C97.1291 78.7352 95.9691 77.3752 93.8891 76.5352C92.3691 75.9352 90.2491 75.4952 88.0091 74.8552C85.8891 74.2552 84.8091 73.7752 84.8091 72.6152C84.8091 71.4552 85.9291 70.9752 87.8891 70.9752C90.2491 70.9752 91.2891 71.6552 91.5691 73.5752H96.5691ZM109.922 79.4552C109.922 81.8952 108.962 83.2952 106.882 83.2952C104.762 83.2952 103.882 81.8552 103.882 79.3752V71.2952H114.762V67.6152H103.882V62.2952H98.7619V79.8952C98.7619 84.1352 101.042 87.8152 106.802 87.8152C112.362 87.8152 114.762 84.0952 114.762 79.9352V74.3352H109.922V79.4552ZM135.007 87.2952V67.6152H129.847V78.9752C129.847 81.5752 128.447 83.4552 125.807 83.4552C123.607 83.4552 122.487 82.2552 122.487 79.7752V67.6152H117.287V80.5752C117.287 84.8952 120.047 87.8152 123.967 87.8152C126.687 87.8152 128.727 86.7752 130.087 84.5352V87.2952H135.007ZM147.007 83.5752C144.407 83.5752 142.567 81.1352 142.567 77.6152C142.567 73.5752 144.007 71.5352 147.047 71.5352C149.927 71.5352 151.407 73.6552 151.407 77.9352C151.407 81.2552 149.487 83.5752 147.007 83.5752ZM156.327 87.2952V60.4152H151.207V70.1752C149.727 68.0952 147.807 67.0952 145.367 67.0952C140.287 67.0952 137.287 71.2952 137.287 77.2552C137.287 83.8952 140.847 87.8152 145.807 87.8152C148.207 87.8152 150.047 86.8952 151.287 84.8952L151.327 87.2952H156.327ZM168.704 83.4552C165.544 83.4552 163.944 81.4552 163.944 77.4552C163.944 73.4552 165.544 71.4952 168.704 71.4952C171.864 71.4952 173.464 73.4552 173.464 77.4552C173.464 81.4552 171.864 83.4552 168.704 83.4552ZM168.704 87.8152C174.824 87.8152 178.704 83.6952 178.704 77.4552C178.704 71.1752 174.864 67.0952 168.704 67.0952C162.464 67.0952 158.584 71.2152 158.584 77.4552C158.584 83.5752 162.344 87.8152 168.704 87.8152ZM197.827 73.5752C197.547 69.3352 194.987 67.0952 189.307 67.0952C183.307 67.0952 181.027 69.6152 181.027 72.9352C181.027 74.6952 181.667 76.2152 183.507 77.3752C184.907 78.2552 186.747 78.8152 190.067 79.6152C191.747 80.0152 193.227 80.4552 193.227 81.8552C193.227 83.3352 191.587 83.8952 189.747 83.8952C187.227 83.8952 185.667 82.8152 185.667 80.9752H180.307C180.387 84.9752 183.747 87.8152 189.787 87.8152C195.387 87.8152 198.387 85.3752 198.387 81.2952C198.387 78.7352 197.227 77.3752 195.147 76.5352C193.627 75.9352 191.507 75.4952 189.267 74.8552C187.147 74.2552 186.067 73.7752 186.067 72.6152C186.067 71.4552 187.187 70.9752 189.147 70.9752C191.507 70.9752 192.547 71.6552 192.827 73.5752H197.827Z" fill="#242973"/>
</svg>
