<svg version="1.2" xmlns="http://www.w3.org/2000/svg" viewBox="0 0 1720 722" width="1720" height="722">
	<title>Novo Projeto</title>
	<style>
		tspan { white-space:pre } 
		.s0 { fill: #78bfa5 } 
		.t1 { font-size: 100px;line-height: 100px;fill: #242973;font-weight: 400;font-family: "CoolveticaRg-Regular", "Coolvetica Rg" } 
		.t2 { font-size: 100px;fill: #f2dfbb;font-weight: 400;font-family: "CoolveticaRg-Regular", "Coolvetica Rg" } 
		.t3 { font-size: 100px;fill: #242973;font-weight: 400;font-family: "CoolveticaRg-Regular", "Coolvetica Rg" } 
		.t4 { font-size: 100px;fill: #242973;font-weight: 400;font-family: "DejaVuSans", "DejaVu Sans" } 
	</style>
	<rect id="Forma 1" class="s0" x="338" y="497.1" width="1380" height="224.8" rx="10"></rect>
	<rect id="Forma 1 copy" class="s0" x="6" y="192.8" width="383.9" height="285.2" rx="10"></rect>
	<rect id="Forma 1 copy 3" class="s0" x="1154.3" y="6" width="138.3" height="102.8" rx="10"></rect>
	<rect id="Forma 1 copy 4" class="s0" x="1171.5" y="147.8" width="138.3" height="102.8" rx="10"></rect>
	<rect id="Forma 1 copy 5" class="s0" x="1320.3" y="47.5" width="138.3" height="102.8" rx="10"></rect>
	<rect id="Forma 1 copy 6" class="s0" x="1365.2" y="168.6" width="138.3" height="102.8" rx="10"></rect>
	<rect id="Forma 1 copy 7" class="s0" x="1261.5" y="275.8" width="138.3" height="102.8" rx="10"></rect>
	<rect id="Forma 1 copy 8" class="s0" x="1458.6" y="310.4" width="138.3" height="102.8" rx="10"></rect>
	<rect id="Forma 1 copy 2" class="s0" x="400.3" y="9.5" width="688.3" height="352.8" rx="10"></rect>
	<text id="Sala" style="transform: matrix(3.459,0,0,3.459,396.82,293.063)" >
		<tspan x="0" y="0" class="t1" dx="0" >S</tspan><tspan  y="0" class="t1" dx="0" >a</tspan><tspan  y="0" class="t1" dx="0" >l</tspan><tspan  y="0" class="t1" dx="0 5" >a
</tspan>
	</text>
	<text id="de" style="transform: matrix(3.459,0,0,3.459,23.293,448.699)" >
		<tspan x="0" y="0" class="t2">d</tspan><tspan  y="0" class="t2">e</tspan><tspan  y="0" class="t2">
</tspan>
	</text>
	<text id="Estudos    " style="transform: matrix(3.459,0,0,3.459,391.632,632.004)" >
		<tspan x="0" y="0" class="t3" dx="0" >E</tspan><tspan  y="0" class="t3" dx="0" >s</tspan><tspan  y="0" class="t3" dx="0" >t</tspan><tspan  y="0" class="t3" dx="0" >u</tspan><tspan  y="0" class="t3" dx="0" >d</tspan><tspan  y="0" class="t3" dx="0" >o</tspan><tspan  y="0" class="t3" dx="0" >s</tspan><tspan  y="0" class="t4" dx="0" >
</tspan>
		<tspan x="0" y="120" class="t4" dx="0" > </tspan><tspan  y="120" class="t4" dx="0" > </tspan><tspan  y="120" class="t4" dx="0 5" > 
</tspan>
	</text>
</svg>